<mxfile host="app.diagrams.net" modified="2022-02-24T10:33:32.410Z" agent="5.0 (Windows NT 10.0; Win64; x64) AppleWebKit/537.36 (KHTML, like Gecko) Chrome/98.0.4758.102 Safari/537.36" etag="dRBzOJvS5ug_Uzj-Km5U" version="16.6.1" type="github">
  <diagram id="U-Te3GgnhW5zTMr8VRMO" name="Page-1">
    <mxGraphModel dx="925" dy="1636" grid="1" gridSize="10" guides="1" tooltips="1" connect="1" arrows="1" fold="1" page="1" pageScale="1" pageWidth="850" pageHeight="1100" math="0" shadow="0">
      <root>
        <mxCell id="0" />
        <mxCell id="1" parent="0" />
        <mxCell id="jCtBcauLOnCdqS6o0Tvj-27" style="edgeStyle=orthogonalEdgeStyle;rounded=1;orthogonalLoop=1;jettySize=auto;html=1;fontFamily=Tahoma;" edge="1" parent="1" source="jCtBcauLOnCdqS6o0Tvj-8" target="jCtBcauLOnCdqS6o0Tvj-26">
          <mxGeometry relative="1" as="geometry" />
        </mxCell>
        <mxCell id="jCtBcauLOnCdqS6o0Tvj-8" value="Data Lake" style="rounded=0;whiteSpace=wrap;html=1;fontFamily=Tahoma;" vertex="1" parent="1">
          <mxGeometry x="190" y="145" width="90" height="170" as="geometry" />
        </mxCell>
        <mxCell id="jCtBcauLOnCdqS6o0Tvj-10" style="edgeStyle=orthogonalEdgeStyle;rounded=1;orthogonalLoop=1;jettySize=auto;html=1;fontFamily=Tahoma;" edge="1" parent="1" source="jCtBcauLOnCdqS6o0Tvj-9" target="jCtBcauLOnCdqS6o0Tvj-8">
          <mxGeometry relative="1" as="geometry" />
        </mxCell>
        <mxCell id="jCtBcauLOnCdqS6o0Tvj-9" value="Source Systems" style="rounded=0;whiteSpace=wrap;html=1;fontFamily=Tahoma;" vertex="1" parent="1">
          <mxGeometry x="40" y="145" width="90" height="170" as="geometry" />
        </mxCell>
        <mxCell id="jCtBcauLOnCdqS6o0Tvj-13" value="Data privacy and Data Security&amp;nbsp;" style="rounded=0;whiteSpace=wrap;html=1;fontFamily=Tahoma;" vertex="1" parent="1">
          <mxGeometry x="190" y="70" width="550" height="60" as="geometry" />
        </mxCell>
        <mxCell id="jCtBcauLOnCdqS6o0Tvj-14" value="GDPR consent management" style="rounded=1;whiteSpace=wrap;html=1;fontFamily=Tahoma;" vertex="1" parent="1">
          <mxGeometry x="330" y="-20" width="120" height="60" as="geometry" />
        </mxCell>
        <mxCell id="jCtBcauLOnCdqS6o0Tvj-15" value="Data cleanup and de-identification" style="rounded=1;whiteSpace=wrap;html=1;fontFamily=Tahoma;" vertex="1" parent="1">
          <mxGeometry x="480" y="-20" width="120" height="60" as="geometry" />
        </mxCell>
        <mxCell id="jCtBcauLOnCdqS6o0Tvj-17" style="edgeStyle=orthogonalEdgeStyle;rounded=1;orthogonalLoop=1;jettySize=auto;html=1;fontFamily=Tahoma;" edge="1" parent="1" source="jCtBcauLOnCdqS6o0Tvj-16" target="jCtBcauLOnCdqS6o0Tvj-14">
          <mxGeometry relative="1" as="geometry" />
        </mxCell>
        <mxCell id="jCtBcauLOnCdqS6o0Tvj-16" value="Customer" style="shape=umlActor;verticalLabelPosition=bottom;verticalAlign=top;html=1;outlineConnect=0;fontFamily=Tahoma;" vertex="1" parent="1">
          <mxGeometry x="70" y="-20" width="30" height="60" as="geometry" />
        </mxCell>
        <mxCell id="jCtBcauLOnCdqS6o0Tvj-18" value="Multi-cloud infrastructure" style="rounded=0;whiteSpace=wrap;html=1;fontFamily=Tahoma;" vertex="1" parent="1">
          <mxGeometry x="190" y="380" width="550" height="60" as="geometry" />
        </mxCell>
        <mxCell id="jCtBcauLOnCdqS6o0Tvj-20" value="Data Visualization Layer" style="rounded=0;whiteSpace=wrap;html=1;fontFamily=Tahoma;" vertex="1" parent="1">
          <mxGeometry x="660" y="140" width="80" height="220" as="geometry" />
        </mxCell>
        <mxCell id="jCtBcauLOnCdqS6o0Tvj-30" style="edgeStyle=orthogonalEdgeStyle;rounded=1;orthogonalLoop=1;jettySize=auto;html=1;fontFamily=Tahoma;" edge="1" parent="1" source="jCtBcauLOnCdqS6o0Tvj-21" target="jCtBcauLOnCdqS6o0Tvj-22">
          <mxGeometry relative="1" as="geometry" />
        </mxCell>
        <mxCell id="jCtBcauLOnCdqS6o0Tvj-21" value="Customer MDM" style="shape=cylinder3;whiteSpace=wrap;html=1;boundedLbl=1;backgroundOutline=1;size=15;fontFamily=Tahoma;fillColor=#dae8fc;strokeColor=#6c8ebf;" vertex="1" parent="1">
          <mxGeometry x="470" y="160" width="60" height="80" as="geometry" />
        </mxCell>
        <mxCell id="jCtBcauLOnCdqS6o0Tvj-31" style="edgeStyle=orthogonalEdgeStyle;rounded=1;orthogonalLoop=1;jettySize=auto;html=1;entryX=0;entryY=0;entryDx=0;entryDy=52.5;entryPerimeter=0;fontFamily=Tahoma;" edge="1" parent="1" source="jCtBcauLOnCdqS6o0Tvj-22" target="jCtBcauLOnCdqS6o0Tvj-24">
          <mxGeometry relative="1" as="geometry" />
        </mxCell>
        <mxCell id="jCtBcauLOnCdqS6o0Tvj-32" style="edgeStyle=orthogonalEdgeStyle;rounded=1;orthogonalLoop=1;jettySize=auto;html=1;fontFamily=Tahoma;" edge="1" parent="1" source="jCtBcauLOnCdqS6o0Tvj-22" target="jCtBcauLOnCdqS6o0Tvj-25">
          <mxGeometry relative="1" as="geometry" />
        </mxCell>
        <mxCell id="jCtBcauLOnCdqS6o0Tvj-22" value="EDW" style="shape=cylinder3;whiteSpace=wrap;html=1;boundedLbl=1;backgroundOutline=1;size=15;fontFamily=Tahoma;" vertex="1" parent="1">
          <mxGeometry x="470" y="269" width="60" height="80" as="geometry" />
        </mxCell>
        <mxCell id="jCtBcauLOnCdqS6o0Tvj-24" value="Datamarts" style="shape=cylinder3;whiteSpace=wrap;html=1;boundedLbl=1;backgroundOutline=1;size=15;fontFamily=Tahoma;verticalAlign=top;fillColor=#dae8fc;strokeColor=#6c8ebf;" vertex="1" parent="1">
          <mxGeometry x="580" y="160" width="60" height="80" as="geometry" />
        </mxCell>
        <mxCell id="jCtBcauLOnCdqS6o0Tvj-25" value="Analytics mart" style="shape=cylinder3;whiteSpace=wrap;html=1;boundedLbl=1;backgroundOutline=1;size=15;fontFamily=Tahoma;" vertex="1" parent="1">
          <mxGeometry x="580" y="269" width="60" height="80" as="geometry" />
        </mxCell>
        <mxCell id="jCtBcauLOnCdqS6o0Tvj-28" style="edgeStyle=orthogonalEdgeStyle;rounded=1;orthogonalLoop=1;jettySize=auto;html=1;fontFamily=Tahoma;" edge="1" parent="1" source="jCtBcauLOnCdqS6o0Tvj-26" target="jCtBcauLOnCdqS6o0Tvj-21">
          <mxGeometry relative="1" as="geometry" />
        </mxCell>
        <mxCell id="jCtBcauLOnCdqS6o0Tvj-29" style="edgeStyle=orthogonalEdgeStyle;rounded=1;orthogonalLoop=1;jettySize=auto;html=1;entryX=0;entryY=0.5;entryDx=0;entryDy=0;entryPerimeter=0;fontFamily=Tahoma;" edge="1" parent="1" source="jCtBcauLOnCdqS6o0Tvj-26" target="jCtBcauLOnCdqS6o0Tvj-22">
          <mxGeometry relative="1" as="geometry" />
        </mxCell>
        <mxCell id="jCtBcauLOnCdqS6o0Tvj-26" value="Data Transformation and analytics" style="rounded=1;whiteSpace=wrap;html=1;fontFamily=Tahoma;" vertex="1" parent="1">
          <mxGeometry x="320" y="200" width="95" height="60" as="geometry" />
        </mxCell>
      </root>
    </mxGraphModel>
  </diagram>
</mxfile>
